{
	"asset":{
		"generator":"Khronos glTF Blender I/O v5.0.21",
		"version":"2.0"
	},
	"extensionsUsed":[
		"KHR_materials_specular"
	],
	"scene":0,
	"scenes":[
		{
			"name":"Scene",
			"nodes":[
				0
			]
		}
	],
	"nodes":[
		{
			"mesh":0,
			"name":"MLP-1_HP",
			"scale":[
				0.009999999776482582,
				0.009999999776482582,
				0.009999999776482582
			]
		}
	],
	"animations":[
		{
			"channels":[
				{
					"sampler":0,
					"target":{
						"node":0,
						"path":"translation"
					}
				},
				{
					"sampler":1,
					"target":{
						"node":0,
						"path":"rotation"
					}
				},
				{
					"sampler":2,
					"target":{
						"node":0,
						"path":"scale"
					}
				}
			],
			"name":"MLP-1_HP|Take 001|BaseLayer",
			"samplers":[
				{
					"input":8,
					"interpolation":"LINEAR",
					"output":9
				},
				{
					"input":8,
					"interpolation":"LINEAR",
					"output":10
				},
				{
					"input":8,
					"interpolation":"LINEAR",
					"output":11
				}
			]
		}
	],
	"materials":[
		{
			"doubleSided":true,
			"extensions":{
				"KHR_materials_specular":{
					"specularFactor":0
				}
			},
			"name":"mobilelauncher_mat",
			"pbrMetallicRoughness":{
				"baseColorTexture":{
					"index":0
				},
				"roughnessFactor":0.858578622341156
			}
		},
		{
			"alphaMode":"BLEND",
			"doubleSided":true,
			"extensions":{
				"KHR_materials_specular":{
					"specularFactor":0
				}
			},
			"name":"mobilelauncher_railings_mat",
			"pbrMetallicRoughness":{
				"baseColorTexture":{
					"index":1
				},
				"roughnessFactor":0.858578622341156
			}
		}
	],
	"meshes":[
		{
			"name":"Mesh",
			"primitives":[
				{
					"attributes":{
						"POSITION":0,
						"NORMAL":1,
						"TEXCOORD_0":2
					},
					"indices":3,
					"material":0
				},
				{
					"attributes":{
						"POSITION":4,
						"NORMAL":5,
						"TEXCOORD_0":6
					},
					"indices":7,
					"material":1
				}
			]
		}
	],
	"textures":[
		{
			"sampler":0,
			"source":0
		},
		{
			"sampler":0,
			"source":1
		}
	],
	"images":[
		{
			"mimeType":"image/jpeg",
			"name":"mobilelauncher_d",
			"uri":"mobilelauncher_d.jpg"
		},
		{
			"mimeType":"image/png",
			"name":"mobilelauncher_railings_d_o",
			"uri":"mobilelauncher_railings_d_o.png"
		}
	],
	"accessors":[
		{
			"bufferView":0,
			"componentType":5126,
			"count":17143,
			"max":[
				69.84920501708984,
				49.6546745300293,
				43.356754302978516
			],
			"min":[
				-32.091796875,
				0.000202178955078125,
				-43.35811996459961
			],
			"type":"VEC3"
		},
		{
			"bufferView":1,
			"componentType":5126,
			"count":17143,
			"type":"VEC3"
		},
		{
			"bufferView":2,
			"componentType":5126,
			"count":17143,
			"type":"VEC2"
		},
		{
			"bufferView":3,
			"componentType":5123,
			"count":34008,
			"type":"SCALAR"
		},
		{
			"bufferView":4,
			"componentType":5126,
			"count":638,
			"max":[
				69.80268859863281,
				31.581911087036133,
				43.311710357666016
			],
			"min":[
				-32.045284271240234,
				9.96649169921875,
				-43.31160354614258
			],
			"type":"VEC3"
		},
		{
			"bufferView":5,
			"componentType":5126,
			"count":638,
			"type":"VEC3"
		},
		{
			"bufferView":6,
			"componentType":5126,
			"count":638,
			"type":"VEC2"
		},
		{
			"bufferView":7,
			"componentType":5123,
			"count":948,
			"type":"SCALAR"
		},
		{
			"bufferView":8,
			"componentType":5126,
			"count":1,
			"max":[
				0
			],
			"min":[
				0
			],
			"type":"SCALAR"
		},
		{
			"bufferView":9,
			"componentType":5126,
			"count":1,
			"type":"VEC3"
		},
		{
			"bufferView":10,
			"componentType":5126,
			"count":1,
			"type":"VEC4"
		},
		{
			"bufferView":11,
			"componentType":5126,
			"count":1,
			"type":"VEC3"
		}
	],
	"bufferViews":[
		{
			"buffer":0,
			"byteLength":205716,
			"byteOffset":0,
			"target":34962
		},
		{
			"buffer":0,
			"byteLength":205716,
			"byteOffset":205716,
			"target":34962
		},
		{
			"buffer":0,
			"byteLength":137144,
			"byteOffset":411432,
			"target":34962
		},
		{
			"buffer":0,
			"byteLength":68016,
			"byteOffset":548576,
			"target":34963
		},
		{
			"buffer":0,
			"byteLength":7656,
			"byteOffset":616592,
			"target":34962
		},
		{
			"buffer":0,
			"byteLength":7656,
			"byteOffset":624248,
			"target":34962
		},
		{
			"buffer":0,
			"byteLength":5104,
			"byteOffset":631904,
			"target":34962
		},
		{
			"buffer":0,
			"byteLength":1896,
			"byteOffset":637008,
			"target":34963
		},
		{
			"buffer":0,
			"byteLength":4,
			"byteOffset":638904
		},
		{
			"buffer":0,
			"byteLength":12,
			"byteOffset":638908
		},
		{
			"buffer":0,
			"byteLength":16,
			"byteOffset":638920
		},
		{
			"buffer":0,
			"byteLength":12,
			"byteOffset":638936
		}
	],
	"samplers":[
		{
			"magFilter":9729,
			"minFilter":9987
		}
	],
	"buffers":[
		{
			"byteLength":638948,
			"uri":"model.bin"
		}
	]
}
